<?xml version="1.0" encoding="utf-8"?>
<!-- Generator: Adobe Illustrator 22.1.0, SVG Export Plug-In . SVG Version: 6.00 Build 0)  -->
<svg version="1.1" id="Layer_1" xmlns="http://www.w3.org/2000/svg" xmlns:xlink="http://www.w3.org/1999/xlink" x="0px" y="0px"
     viewBox="0 0 16 16" style="enable-background:new 0 0 16 16;" xml:space="preserve">
<g>
	<polygon points="5,7 3.5,8 4,8 4,12 6,12 6,8 6.5,8 	"/>
  <polygon points="8,8 6.5,9 7,9 7,12 9,12 9,9 9.5,9 	"/>
  <polygon points="11,9 9.5,10 10,10 10,12 12,12 12,10 12.5,10 	"/>
</g>
  <path d="M12.5,7c-0.17,0-0.34,0.02-0.51,0.05C12,7.03,12,7.02,12,7c0-2.21-1.79-4-4-4C6.13,3,4.58,4.28,4.14,6.01
	C4.09,6.01,4.05,6,4,6C2.34,6,1,7.34,1,9c0,1.3,0.84,2.4,2,2.82v-1.09C2.4,10.38,2,9.74,2,9c0-1.1,0.9-2,2-2
	c0.38,0,0.73,0.11,1.03,0.29C5.02,7.2,5,7.1,5,7c0-1.66,1.34-3,3-3s3,1.34,3,3c0,0.25-0.05,0.49-0.11,0.73l0.01,0L11,7.8l0.55,0.37
	l0.12,0.08C11.91,8.09,12.2,8,12.5,8C13.33,8,14,8.67,14,9.5c0,0.65-0.42,1.2-1,1.41V11v0.95c1.14-0.23,2-1.24,2-2.45
	C15,8.12,13.88,7,12.5,7z"/>
</svg>
